<svg width="196" height="46" viewBox="0 0 196 46" fill="none" xmlns="http://www.w3.org/2000/svg">
<g clip-path="url(#clip0_66_309)">
<mask id="mask0_66_309" style="mask-type:luminance" maskUnits="userSpaceOnUse" x="0" y="7" width="196" height="32">
<path d="M195.24 7.96997H0.000488281V38.03H195.24V7.96997Z" fill="white"/>
</mask>
<g mask="url(#mask0_66_309)">
<mask id="mask1_66_309" style="mask-type:luminance" maskUnits="userSpaceOnUse" x="0" y="7" width="196" height="32">
<path d="M195.24 7.96997H0.000488281V38.03H195.24V7.96997Z" fill="white"/>
</mask>
<g mask="url(#mask1_66_309)">
<path d="M9.5105 7.96997V18.25C9.5105 18.25 9.5805 18.25 9.6205 18.25C15.2405 18.25 19.7905 13.69 19.7905 8.07997C19.7905 8.03997 19.7905 8.00997 19.7905 7.96997H9.5105Z" fill="#FDBD10"/>
<path d="M19.7905 26.97C19.7905 26.97 19.7205 26.97 19.6805 26.97C14.0605 26.97 9.5105 31.53 9.5105 37.14C9.5105 37.18 9.5105 37.21 9.5105 37.25H19.7905V26.97Z" fill="#8861A8"/>
<path d="M0.000488281 27.75H10.2805C10.2805 27.75 10.2805 27.68 10.2805 27.64C10.2805 22.02 5.72049 17.47 0.110488 17.47C0.0704883 17.47 0.0404883 17.47 0.000488281 17.47L0.000488281 27.75Z" fill="#437BBE"/>
<path d="M19.0205 17.46C19.0205 17.46 19.0205 17.53 19.0205 17.57C19.0205 23.19 23.5805 27.74 29.1905 27.74C29.2305 27.74 29.2605 27.74 29.3005 27.74V17.46H19.0205Z" fill="#F48220"/>
<path d="M54.2206 20.37C54.2206 24.24 51.4806 26.79 47.4606 26.79H43.5706V32.3699H39.6206V13.95H47.4606C51.5106 13.95 54.2206 16.55 54.2206 20.37ZM50.2006 20.37C50.2006 18.5 49.0906 17.4 47.2306 17.4H43.5706V23.4H47.2306C49.1006 23.4 50.2006 22.24 50.2006 20.37Z" fill="#00263E"/>
<path d="M66.8804 20.24L65.6404 23.35C64.9004 22.96 64.3004 22.8 63.5604 22.8C62.0304 22.8 60.7204 23.77 60.6904 25.85V32.38H57.0104V24.07C57.0104 22.89 56.5404 22.62 55.3804 22.73V19.7C57.9904 19.25 59.6404 19.7 60.1704 21.52C61.0404 20.13 62.4304 19.47 63.8804 19.47C64.8804 19.47 65.8304 19.68 66.8804 20.26" fill="#00263E"/>
<path d="M68.7505 16C68.7505 14.74 69.6705 13.95 70.9605 13.95C72.2505 13.95 73.1205 14.74 73.1205 16C73.1205 17.26 72.2305 18.03 70.9605 18.03C69.6905 18.03 68.7505 17.21 68.7505 16ZM69.0905 19.69H72.7705V32.3699H69.0905V19.69Z" fill="#00263E"/>
<path d="M75.4905 28.3999H79.1505C79.3305 29.3999 80.1205 29.8199 81.2305 29.8199C82.4705 29.8199 83.2805 29.4799 83.2805 28.7099C83.2805 27.9399 82.5705 27.6599 81.1005 27.4499C78.7105 27.1599 75.7605 26.4199 75.7605 23.3999C75.7605 20.7899 78.1005 19.4299 81.2105 19.4299C84.3205 19.4299 86.3405 20.8199 86.6805 23.5399H83.2605C83.0805 22.6999 82.4205 22.2499 81.2905 22.2499C79.9505 22.2499 79.4205 22.7199 79.4205 23.2999C79.4205 24.0899 80.1605 24.3299 81.5505 24.5399C84.3405 24.9599 87.0005 25.7199 87.0005 28.6199C87.0005 31.1499 84.7605 32.6499 81.2905 32.6499C77.8205 32.6499 75.7405 31.2599 75.5005 28.4099" fill="#00263E"/>
<path d="M98.9305 31.9799C97.6105 32.4299 96.4605 32.5899 95.4005 32.5899C92.4005 32.5899 90.6105 30.9299 90.6105 27.1699V22.6399L88.2405 22.3999V19.6899H90.6605L91.0305 15.8199H94.2905V19.6899H98.3905V22.6599H94.2905V27.0799C94.2905 28.7099 94.8205 29.4699 96.3205 29.4699C96.9305 29.4699 97.5805 29.3599 98.2705 29.1299L98.9305 31.9699V31.9799Z" fill="#00263E"/>
<path d="M113.75 19.6899V19.8699L108.51 33.2899C107.12 36.8699 105.83 38.0299 102.96 38.0299C102.04 38.0299 101.17 37.7899 100.43 37.4999L101.11 34.6299C101.64 34.8099 102.11 34.9199 102.58 34.9199C103.71 34.9199 104.24 34.4499 104.87 32.8099L105.19 32.0199L99.6904 19.8599V19.6799H103.61L105.56 24.3099L106.88 27.8399L108.14 24.3399L109.93 19.6799H113.75V19.6899Z" fill="#00263E"/>
<path d="M128.85 24.8199V32.3699H125.17V25.0799C125.17 23.4199 124.38 22.5499 122.8 22.5499C121.09 22.5499 120.06 23.8099 120.06 25.6599V32.3699H116.38V24.0599C116.38 22.8799 115.93 22.5599 114.75 22.6899V19.6899C117.33 19.2399 118.99 19.6899 119.54 21.4799C120.7 20.0599 122.2 19.4299 123.96 19.4299C126.91 19.4299 128.85 21.5899 128.85 24.8199Z" fill="#00263E"/>
<path d="M136.331 23.1599C136.331 17.5799 140.171 13.6899 145.541 13.6899C150.091 13.6899 153.331 16.1599 154.381 20.2399H150.431C149.561 18.4799 147.881 17.4199 145.691 17.4199C142.531 17.4199 140.351 19.7099 140.351 23.1599C140.351 26.6099 142.511 28.8699 145.691 28.8699C148.031 28.8699 149.791 27.6899 150.531 25.7099H154.481C153.561 30.0299 150.221 32.6299 145.531 32.6299C140.111 32.6299 136.321 28.7099 136.321 23.1599" fill="#00263E"/>
<path d="M169.531 29.3699V32.3699C167.501 32.7899 165.371 32.4499 164.921 30.6899C164.101 31.8999 162.501 32.6399 160.581 32.6399C157.821 32.6399 156.051 31.0299 156.051 28.6699C156.051 25.9099 158.211 24.5699 161.101 24.5699C162.181 24.5699 163.211 24.6999 164.231 25.0399V24.4299C164.231 22.8999 162.991 22.3999 161.311 22.3999C160.131 22.3999 158.781 22.6899 157.521 23.2699L156.811 20.5099C158.571 19.7699 160.311 19.4299 161.841 19.4299C165.231 19.4299 167.891 20.9799 167.891 24.2999V27.9599C167.891 29.1399 168.261 29.4899 169.521 29.3799M164.251 27.3999V27.2199C163.431 26.9799 162.641 26.8799 161.861 26.8799C160.521 26.8799 159.651 27.3299 159.651 28.3499C159.651 29.2699 160.281 29.7999 161.471 29.7999C163.021 29.7999 164.261 28.8299 164.261 27.4099" fill="#00263E"/>
<path d="M182.111 20.24L180.871 23.35C180.131 22.96 179.531 22.8 178.791 22.8C177.261 22.8 175.951 23.77 175.921 25.85V32.38H172.241V24.07C172.241 22.89 171.771 22.62 170.611 22.73V19.7C173.221 19.25 174.871 19.7 175.401 21.52C176.271 20.13 177.661 19.47 179.111 19.47C180.111 19.47 181.061 19.68 182.111 20.26" fill="#00263E"/>
<path d="M194.98 27.1299H186.35C186.77 28.7599 188.17 29.5999 190.4 29.5999C191.72 29.5999 193.01 29.3599 194.14 28.8599L194.8 31.5399C193.14 32.2999 191.67 32.6199 189.96 32.6199C185.51 32.6199 182.64 30.1199 182.64 25.9899C182.64 22.0999 185.19 19.4099 189.27 19.4099C192.9 19.4099 195.24 21.5899 195.24 24.8799C195.24 25.5899 195.16 26.2999 194.98 27.1199M186.35 24.6899H192.01C192.01 23.0799 190.88 22.3199 189.35 22.3199C187.82 22.3199 186.74 23.1899 186.35 24.6899Z" fill="#00263E"/>
</g>
</g>
</g>
<defs>
<clipPath id="clip0_66_309">
<rect width="195.991" height="46" fill="white"/>
</clipPath>
</defs>
</svg>
